<?xml version="1.0" encoding="utf-8"?>
<!-- Generator: Adobe Illustrator 28.0.0, SVG Export Plug-In . SVG Version: 6.00 Build 0)  -->
<svg version="1.1" id="Capa_1" xmlns="http://www.w3.org/2000/svg" xmlns:xlink="http://www.w3.org/1999/xlink" x="0px" y="0px"
	 viewBox="0 0 563.3 300" style="enable-background:new 0 0 563.3 300;" xml:space="preserve">
<style type="text/css">
	.st0{fill:#E5007E;}
	.st1{fill:#662482;}
</style>
<g>
	<path class="st0" d="M164.2,263.1c-4.3,0-8.7,0-13,0c0.1-0.7,0.2-1.5,0.2-2.2c-0.1-7-5.1-11.6-13-11.7c-14.2-0.1-28.5,0-42.7,0
		c-14,0-27.9-0.1-41.9,0c-8.7,0.1-13.4,4.4-13.3,12.1c0,0.6,0.1,1.2,0.2,1.8c-4.2,0-8.4,0-12.6,0c-14,0.1-21.5,5.4-21.4,14.8
		c0.1,8.7,7.9,14.5,20.7,14.5c45.8,0.1,91.6,0.2,137.4,0c12.5,0,20.5-6.3,20.3-15C185,268.8,177,263.1,164.2,263.1z"/>
	<g>
		<path class="st1" d="M261.7,108.3c-2.9,0-5.9-0.3-8.8-0.8c-3-0.5-5.4-1.1-7.4-1.9V90c1.9,0.2,3.8,0.3,5.8,0.5c2,0.1,4,0.2,5.8,0.2
			c2.3,0,4.2-0.4,5.8-1.1c1.5-0.7,2.7-1.8,3.4-3.2c0.7-1.5,1.1-3.4,1.1-5.9v-71h19.6v73.9c0,5.6-0.9,10.2-2.6,13.9
			c-1.7,3.7-4.5,6.5-8.2,8.3C272.6,107.4,267.7,108.3,261.7,108.3z"/>
		<path class="st1" d="M323.3,108.3c-6.4,0-11.3-1.9-15-5.6c-3.6-3.8-5.4-9.1-5.4-16V36.4h19.6v44.5c0,4,0.9,6.6,2.8,8
			c1.9,1.4,4.4,2.1,7.5,2.1c2.5,0,5-0.5,7.6-1.4c2.6-0.9,4.9-2.2,7-3.8V36.4h19.7v71.1h-16.3l-3.4-7.3c-3.2,2.1-6.8,4-11,5.6
			C332.3,107.5,327.9,108.3,323.3,108.3z"/>
		<path class="st1" d="M382,107.5V36.4h16.2l3.4,7.3c2.6-2.2,6-4.2,10-5.9c4-1.7,8.1-2.6,12.4-2.6c5.8,0,10.3,1.1,13.5,3.4
			c3.2,2.3,5.4,5.4,6.7,9.2c1.3,3.8,1.9,8.1,1.9,12.8v46.9h-19.6V63.2c0-2.3-0.4-4.2-1.3-5.7c-0.8-1.5-2-2.6-3.5-3.4
			c-1.5-0.8-3.3-1.2-5.4-1.2c-1.9,0-3.6,0.2-5.4,0.7c-1.7,0.4-3.4,1.1-4.9,1.9c-1.5,0.8-3,1.7-4.4,2.8v49.4H382z"/>
		<path class="st1" d="M463.2,25.9c-1.9,0-2.8-0.9-2.8-2.7v-13c0-1.9,0.9-2.8,2.8-2.8h15.1c0.8,0,1.4,0.3,1.9,0.8
			c0.4,0.5,0.7,1.2,0.7,2v13c0,1.8-0.8,2.7-2.5,2.7H463.2z M460.8,107.5V36.4h19.6v71.1H460.8z"/>
		<path class="st1" d="M526,108.2c-5.8,0-10.8-0.6-15-1.8c-4.2-1.2-7.5-3.2-10.1-6c-2.6-2.8-4.5-6.6-5.7-11.3
			c-1.2-4.7-1.8-10.5-1.8-17.4c0-7.2,0.6-13.2,1.8-17.9c1.2-4.7,3.1-8.4,5.7-11.1c2.6-2.7,6-4.6,10.2-5.7c4.2-1.1,9.2-1.7,14.9-1.7
			c5.9,0,11,0.6,15.1,1.7c4.1,1.1,7.5,3.1,10.1,5.8c2.6,2.7,4.5,6.4,5.7,11.1c1.2,4.7,1.8,10.7,1.8,17.8c0,7.1-0.6,13-1.7,17.7
			c-1.1,4.7-3,8.5-5.6,11.2c-2.6,2.7-5.9,4.7-10.1,5.8C537.1,107.6,532,108.2,526,108.2z M526,92.6c2.4,0,4.4-0.2,6-0.7
			c1.6-0.4,3-1.3,4-2.7c1-1.4,1.8-3.5,2.3-6.3c0.5-2.8,0.8-6.5,0.8-11.1c0-4.7-0.3-8.4-0.8-11.2s-1.3-4.9-2.3-6.2
			c-1-1.4-2.3-2.3-4-2.7c-1.6-0.4-3.6-0.7-6-0.7c-2.3,0-4.3,0.2-5.9,0.7c-1.6,0.4-3,1.3-4,2.7c-1.1,1.4-1.8,3.4-2.3,6.2
			c-0.5,2.8-0.7,6.5-0.7,11.2c0,4.6,0.2,8.3,0.7,11.1c0.5,2.8,1.3,4.9,2.3,6.3c1.1,1.4,2.4,2.3,4,2.7
			C521.7,92.3,523.7,92.6,526,92.6z"/>
	</g>
	<g>
		<path class="st1" d="M244.9,225.2v-15.8l32.8-32.5c2.7-2.6,4.8-5,6.5-7.2c1.7-2.2,2.9-4.4,3.8-6.6c0.8-2.2,1.3-4.5,1.3-7
			c0-2.4-0.5-4.5-1.4-6.2c-0.9-1.7-2.4-3-4.5-3.9c-2.1-0.9-4.9-1.3-8.6-1.3h-27.6v-15.4c4.3-0.8,9-1.5,14.1-2.2c5.2-0.7,11-1,17.3-1
			c7.7,0,13.7,1.1,18.1,3.2c4.4,2.1,7.5,5.2,9.4,9.2c1.9,4,2.8,8.8,2.8,14.5c0,4.4-0.6,8.5-1.8,12.1c-1.2,3.6-2.9,7.1-5.2,10.4
			c-2.3,3.3-5.2,6.7-8.8,10l-22.1,21.9H312v17.8H244.9z"/>
		<path class="st1" d="M349.8,225.7c-5.5,0-10.2-1-14-2.9c-3.9-1.9-6.8-4.8-8.8-8.6c-2-3.8-3-8.5-3-13.9v-47.8
			c0-5.8,1-10.6,3.1-14.5c2-3.9,5-6.9,9-8.9c3.9-2,8.6-3,13.9-3h20.5c5.6,0,10.2,1,13.9,3.1c3.7,2.1,6.4,5.1,8.3,9
			c1.9,3.9,2.8,8.7,2.8,14.3v47.8c0,8.2-2.2,14.5-6.6,18.9c-4.4,4.3-10.5,6.5-18.4,6.5H349.8z M354.4,208H365c3.6,0,6.3-0.9,8-2.7
			c1.7-1.8,2.6-4.4,2.6-8v-43c0-3.9-0.9-6.6-2.7-8.2c-1.8-1.6-4.2-2.4-7.2-2.4h-12.1c-3.3,0-5.8,0.9-7.5,2.7c-1.7,1.8-2.6,4.4-2.6,8
			v42.9c0,3.7,0.9,6.4,2.8,8.2C348.3,207.2,351,208,354.4,208z"/>
		<path class="st1" d="M408.7,225.2v-15.8l32.8-32.5c2.7-2.6,4.8-5,6.5-7.2c1.7-2.2,2.9-4.4,3.8-6.6c0.8-2.2,1.3-4.5,1.3-7
			c0-2.4-0.5-4.5-1.4-6.2c-0.9-1.7-2.4-3-4.5-3.9c-2.1-0.9-4.9-1.3-8.6-1.3H411v-15.4c4.3-0.8,9-1.5,14.1-2.2c5.2-0.7,11-1,17.3-1
			c7.7,0,13.7,1.1,18.1,3.2c4.4,2.1,7.5,5.2,9.4,9.2c1.9,4,2.8,8.8,2.8,14.5c0,4.4-0.6,8.5-1.8,12.1c-1.2,3.6-2.9,7.1-5.2,10.4
			c-2.3,3.3-5.2,6.7-8.8,10l-22.1,21.9h40.9v17.8H408.7z"/>
		<path class="st1" d="M522.2,225.8c-5.4,0-11.1-0.2-17-0.7c-5.9-0.4-11.6-0.9-16.9-1.5v-15.5H523c3.2,0,5.7-0.5,7.5-1.6
			c1.8-1.1,3.1-2.5,3.9-4.2c0.8-1.7,1.1-3.5,1.1-5.4v-6.8c0-3.1-0.8-5.6-2.3-7.4c-1.5-1.8-4.1-2.7-7.8-2.7h-7.7
			c-2.9,0-5.1,0.6-6.6,1.8c-1.5,1.2-2.4,3-2.9,5.5h-18.6l2.8-60.6h59v17.7h-42.1l-1.1,23.4c1.3-1.4,3.2-2.5,5.5-3.3
			c2.3-0.8,5-1.1,7.9-1.1h10.8c5.1,0,9.4,1,12.8,3.1c3.4,2,5.9,4.8,7.6,8.3c1.7,3.5,2.5,7.4,2.5,11.8v14.5c0,5.8-1.3,10.5-3.9,14.1
			c-2.6,3.6-6.3,6.3-11.2,8C535.4,225,529.4,225.8,522.2,225.8z"/>
	</g>
	<path class="st1" d="M43.6,120.6l-8,22.3c-3.3,9.9-6.7,19.7-9.7,29.6c-2.8,9.3,0.9,18,9.8,21.2c26.9,9.6,54,18.8,81.2,27.7
		c8.7,2.8,16.9-1,20.1-9.3c4.1-10.2,7.2-20.8,10.6-30.9l6.9-20.5c1.7-6.5,5.4-13.9,7.8-21.1c6.5-19.7,13.4-39.3,20-58.9
		c3.8-11.2,0.8-18.4-9.6-23.9c-6.7-3.6-9.1-8.9-6.4-14.3c2.6-5.3,8.6-7,15.3-4.1c17.8,7.5,27,27.4,20.9,46.7
		c-5.2,16.5-11.1,32.7-16.6,49.1c-0.8,2.3-0.3,1.4-1.2,4.3c25.1,8.6,31.3,10,56,18.4c2.3,0.8,4.7,1.5,7,2.4c5.8,2.4,7.4,11,5.7,16.2
		c-1.8,5.3-8.5,11.6-14.4,9.8c-8.3-2.5-7.2-2.8-15.3-5.6c-18.9-6.5-28.4-8.7-48.4-15.5c-5.8,17.5-10.4,30.9-15.9,48
		c-4.6,14.6-12.9,25.9-28.5,29c-6.9,1.4-15,1.3-21.7-0.8c-26.4-8.3-52.5-17.4-78.6-26.6c-20.6-7.3-30.6-27.5-23.7-48.3
		c14.6-43.8,29.5-87.5,44.7-131.1c7.3-21,27.8-30.6,48.9-23.8c8.5,2.7,16.9,5.6,25.2,8.6c6.5,2.4,9.4,7.5,7.7,13.1
		c-1.7,5.6-7.8,8.3-14.5,6.1c-8.5-2.7-16.8-5.9-25.3-8.5c-10.5-3.2-19.1,0.8-22.6,10.8C61.6,67.2,52.7,93.9,43.6,120.6
		c-0.2,0.7-0.1,1.4-0.1,1.5"/>
	<g>
		<g>
			<g>
				<path class="st0" d="M81.5,184.9c-0.8,0-1.6-0.3-2.2-0.9c-0.6-0.6-0.9-1.4-1-2.2l-0.1-14.3c0-1.4,0.9-2.7,2.3-3.1l13.1-3.7
					l-0.5-64.9l-14.5,7.4c-0.8,0.4-1.7,0.5-2.6,0.1c-0.8-0.3-1.5-1-1.8-1.8l-6-15.5c-0.5-1.3-0.1-2.8,1-3.6l26.9-21.5
					c0.6-0.4,1.3-0.7,2-0.7l15.8-0.2c0.3,0,0.6,0,0.9,0.1c6.6,1.8,8,7,7.8,9.7l0.7,91.3l9.6,2.7c1.4,0.4,2.3,1.6,2.3,3l0.1,14.3
					c0,1.8-1.4,3.2-3.2,3.2L81.5,184.9C81.5,184.9,81.5,184.9,81.5,184.9z"/>
			</g>
		</g>
	</g>
	<g>
		<path class="st1" d="M238.5,264.4v-12.8h5.1c0.4,0,0.7,0,1.1,0.1c0.4,0.1,0.7,0.3,1.1,0.6c0.3,0.3,0.6,0.7,0.8,1.2
			c0.2,0.5,0.3,1.2,0.3,2.1c0,0.9-0.1,1.6-0.3,2.2c-0.2,0.6-0.5,1-0.8,1.3c-0.3,0.3-0.7,0.5-1.1,0.6c-0.4,0.1-0.8,0.2-1.1,0.2
			c-0.2,0-0.4,0-0.8,0c-0.3,0-0.7,0-1.1,0c-0.4,0-0.7,0-1.1-0.1c-0.3,0-0.6,0-0.7-0.1v4.7H238.5z M239.9,258.6h3.5
			c0.4,0,0.8-0.1,1.1-0.3c0.3-0.2,0.6-0.5,0.8-0.9c0.2-0.4,0.3-1,0.3-1.8c0-0.8-0.1-1.3-0.3-1.7c-0.2-0.4-0.4-0.7-0.8-0.9
			c-0.3-0.2-0.7-0.2-1-0.2h-3.6V258.6z"/>
		<path class="st1" d="M249,264.4v-9.3h1l0.3,1.6c0.4-0.5,0.9-0.9,1.4-1.2c0.5-0.3,1.1-0.5,1.8-0.5c0.2,0,0.3,0,0.5,0
			c0.1,0,0.3,0,0.4,0.1v1.4c-0.2,0-0.3,0-0.5-0.1c-0.2,0-0.3,0-0.5,0c-0.4,0-0.8,0.1-1.1,0.2c-0.3,0.1-0.7,0.3-1,0.5
			c-0.3,0.2-0.6,0.5-0.9,0.8v6.6H249z"/>
		<path class="st1" d="M259.8,264.5c-0.7,0-1.3-0.1-1.8-0.2c-0.5-0.1-0.9-0.4-1.3-0.7c-0.3-0.3-0.6-0.8-0.7-1.5
			c-0.2-0.6-0.2-1.4-0.2-2.4c0-1,0.1-1.8,0.2-2.4c0.2-0.6,0.4-1.1,0.7-1.4c0.3-0.3,0.8-0.6,1.3-0.7c0.5-0.1,1.1-0.2,1.8-0.2
			s1.3,0.1,1.8,0.2c0.5,0.1,0.9,0.4,1.3,0.7c0.3,0.3,0.6,0.8,0.8,1.4c0.2,0.6,0.3,1.4,0.3,2.4c0,1-0.1,1.8-0.3,2.4
			c-0.2,0.6-0.4,1.1-0.7,1.4c-0.3,0.3-0.7,0.6-1.3,0.7C261.1,264.4,260.5,264.5,259.8,264.5z M259.8,263.3c0.4,0,0.8,0,1.1-0.1
			c0.3-0.1,0.6-0.2,0.8-0.5c0.2-0.2,0.4-0.6,0.5-1.1c0.1-0.5,0.2-1.1,0.2-1.9c0-0.8-0.1-1.5-0.2-1.9c-0.1-0.5-0.3-0.8-0.5-1.1
			c-0.2-0.2-0.5-0.4-0.8-0.5c-0.3-0.1-0.7-0.1-1.1-0.1c-0.4,0-0.8,0-1.1,0.1c-0.3,0.1-0.6,0.2-0.8,0.5c-0.2,0.2-0.4,0.6-0.5,1.1
			c-0.1,0.5-0.2,1.1-0.2,1.9c0,0.8,0.1,1.4,0.2,1.9c0.1,0.5,0.3,0.9,0.5,1.1c0.2,0.2,0.5,0.4,0.8,0.5
			C259,263.3,259.4,263.3,259.8,263.3z"/>
		<path class="st1" d="M269.5,264.5c-0.5,0-1-0.1-1.5-0.2c-0.5-0.1-0.8-0.4-1.2-0.7c-0.3-0.3-0.6-0.8-0.8-1.4
			c-0.2-0.6-0.3-1.4-0.3-2.3c0-1,0.1-1.8,0.3-2.4c0.2-0.6,0.4-1.1,0.7-1.5c0.3-0.3,0.7-0.6,1.2-0.7s1-0.2,1.5-0.2c0.5,0,1,0,1.5,0.1
			c0.5,0,1.1,0.1,1.6,0.2v0.8h-2.7c-0.6,0-1.1,0.1-1.5,0.3c-0.4,0.2-0.7,0.6-0.9,1.1c-0.2,0.5-0.3,1.3-0.3,2.3c0,1,0.1,1.7,0.3,2.3
			c0.2,0.5,0.5,0.9,0.9,1.1c0.4,0.2,0.9,0.3,1.5,0.3h2.8v0.8c-0.3,0-0.6,0.1-0.9,0.1c-0.4,0-0.7,0.1-1.1,0.1
			C270.3,264.5,269.9,264.5,269.5,264.5z"/>
		<path class="st1" d="M278.2,264.5c-1,0-1.7-0.1-2.3-0.4c-0.6-0.3-1-0.8-1.2-1.5c-0.2-0.7-0.4-1.6-0.4-2.8c0-1.2,0.1-2.2,0.4-2.9
			c0.2-0.7,0.7-1.2,1.2-1.5c0.6-0.3,1.3-0.4,2.3-0.4c0.8,0,1.5,0.1,2,0.3c0.5,0.2,0.9,0.5,1.1,0.9c0.2,0.4,0.4,1.1,0.4,1.9
			c0,0.5-0.1,1-0.3,1.3c-0.2,0.3-0.5,0.6-0.9,0.7c-0.4,0.1-0.9,0.2-1.4,0.2h-3.4c0,0.8,0.1,1.4,0.2,1.8c0.2,0.5,0.4,0.8,0.8,1
			c0.4,0.2,1,0.3,1.8,0.3h3v0.8c-0.5,0.1-1.1,0.1-1.6,0.2C279.5,264.4,278.9,264.5,278.2,264.5z M275.7,259.4h3.3
			c0.5,0,0.9-0.1,1.2-0.3c0.2-0.2,0.4-0.5,0.4-1c0-0.5-0.1-0.9-0.2-1.2c-0.2-0.3-0.4-0.5-0.7-0.6c-0.3-0.1-0.8-0.2-1.3-0.2
			c-0.6,0-1.2,0.1-1.5,0.3c-0.4,0.2-0.6,0.5-0.8,1C275.8,257.8,275.7,258.5,275.7,259.4z"/>
		<path class="st1" d="M287.3,264.5c-0.2,0-0.5,0-0.9,0c-0.3,0-0.7,0-1.1-0.1c-0.4,0-0.7,0-1-0.1c-0.3,0-0.5-0.1-0.7-0.1v-0.8h3.8
			c0.4,0,0.7,0,1-0.1c0.3-0.1,0.5-0.2,0.7-0.4c0.2-0.2,0.2-0.5,0.2-0.9v-0.4c0-0.4-0.1-0.7-0.4-0.9c-0.3-0.2-0.7-0.3-1.3-0.3h-1.3
			c-0.5,0-1-0.1-1.5-0.2c-0.4-0.1-0.7-0.4-1-0.7c-0.2-0.3-0.3-0.8-0.3-1.4v-0.5c0-0.6,0.1-1.1,0.3-1.4c0.2-0.4,0.6-0.6,1.1-0.8
			c0.5-0.2,1.1-0.3,1.9-0.3c0.3,0,0.7,0,1.1,0c0.4,0,0.8,0.1,1.2,0.1c0.4,0,0.7,0.1,1,0.1v0.8h-3.6c-0.6,0-1,0.1-1.4,0.3
			c-0.3,0.2-0.5,0.6-0.5,1.1v0.4c0,0.4,0.1,0.6,0.2,0.8c0.1,0.2,0.4,0.3,0.6,0.4c0.3,0.1,0.6,0.1,0.9,0.1h1.3c0.8,0,1.5,0.2,2,0.6
			c0.5,0.4,0.7,1,0.7,1.7v0.6c0,0.6-0.1,1.1-0.4,1.5c-0.3,0.3-0.7,0.6-1.2,0.7C288.5,264.4,287.9,264.5,287.3,264.5z"/>
		<path class="st1" d="M296.4,264.5c-0.7,0-1.3-0.1-1.8-0.2c-0.5-0.1-0.9-0.4-1.3-0.7c-0.3-0.3-0.6-0.8-0.7-1.5
			c-0.2-0.6-0.2-1.4-0.2-2.4c0-1,0.1-1.8,0.2-2.4c0.2-0.6,0.4-1.1,0.7-1.4c0.3-0.3,0.8-0.6,1.3-0.7c0.5-0.1,1.1-0.2,1.8-0.2
			c0.7,0,1.3,0.1,1.8,0.2c0.5,0.1,0.9,0.4,1.3,0.7c0.3,0.3,0.6,0.8,0.8,1.4c0.2,0.6,0.3,1.4,0.3,2.4c0,1-0.1,1.8-0.3,2.4
			c-0.2,0.6-0.4,1.1-0.7,1.4c-0.3,0.3-0.7,0.6-1.3,0.7C297.7,264.4,297.1,264.5,296.4,264.5z M296.4,263.3c0.4,0,0.8,0,1.1-0.1
			c0.3-0.1,0.6-0.2,0.8-0.5c0.2-0.2,0.4-0.6,0.5-1.1c0.1-0.5,0.2-1.1,0.2-1.9c0-0.8-0.1-1.5-0.2-1.9c-0.1-0.5-0.3-0.8-0.5-1.1
			c-0.2-0.2-0.5-0.4-0.8-0.5c-0.3-0.1-0.7-0.1-1.1-0.1c-0.4,0-0.8,0-1.1,0.1c-0.3,0.1-0.6,0.2-0.8,0.5c-0.2,0.2-0.4,0.6-0.5,1.1
			c-0.1,0.5-0.2,1.1-0.2,1.9c0,0.8,0.1,1.4,0.2,1.9c0.1,0.5,0.3,0.9,0.5,1.1c0.2,0.2,0.5,0.4,0.8,0.5
			C295.6,263.3,296,263.3,296.4,263.3z"/>
		<path class="st1" d="M310.2,264.4c-0.3,0-0.6,0-0.9-0.1c-0.3-0.1-0.6-0.2-0.9-0.3c-0.3-0.2-0.5-0.4-0.7-0.7s-0.3-0.8-0.3-1.3v-7.8
			c0-0.5,0.1-0.9,0.2-1.2c0.1-0.3,0.3-0.6,0.6-0.8c0.2-0.2,0.5-0.3,0.8-0.4c0.3-0.1,0.6-0.1,0.9-0.1c0.7,0,1.4,0,2,0
			c0.6,0,1.2,0,1.7,0.1c0.6,0,1.1,0,1.6,0.1v1.1h-5c-0.5,0-0.8,0.1-1.1,0.4c-0.3,0.2-0.4,0.6-0.4,1.2v3l5.7,0.1v1.1l-5.7,0.1v3
			c0,0.4,0.1,0.8,0.2,1c0.1,0.2,0.3,0.4,0.6,0.4c0.2,0.1,0.5,0.1,0.7,0.1h4.9v1.1c-0.5,0-1.1,0.1-1.7,0.1c-0.6,0-1.2,0-1.8,0.1
			C311.3,264.4,310.8,264.4,310.2,264.4z"/>
		<path class="st1" d="M320.1,264.4c-0.5,0-1-0.1-1.3-0.3c-0.4-0.2-0.6-0.5-0.8-0.9c-0.2-0.4-0.3-1-0.3-1.8v-10.3h1.4v10.1
			c0,0.6,0.1,1,0.2,1.3c0.1,0.3,0.3,0.5,0.5,0.6c0.2,0.1,0.4,0.2,0.7,0.2l0.9,0.1v1H320.1z"/>
		<path class="st1" d="M326.3,264.5c-1,0-1.7-0.1-2.3-0.4c-0.6-0.3-1-0.8-1.2-1.5c-0.2-0.7-0.4-1.6-0.4-2.8c0-1.2,0.1-2.2,0.4-2.9
			c0.2-0.7,0.7-1.2,1.2-1.5c0.6-0.3,1.3-0.4,2.3-0.4c0.8,0,1.5,0.1,2,0.3c0.5,0.2,0.9,0.5,1.1,0.9c0.2,0.4,0.4,1.1,0.4,1.9
			c0,0.5-0.1,1-0.3,1.3c-0.2,0.3-0.5,0.6-0.9,0.7c-0.4,0.1-0.9,0.2-1.4,0.2h-3.4c0,0.8,0.1,1.4,0.2,1.8c0.1,0.5,0.4,0.8,0.8,1
			c0.4,0.2,1,0.3,1.8,0.3h3v0.8c-0.5,0.1-1.1,0.1-1.6,0.2C327.6,264.4,327,264.5,326.3,264.5z M323.8,259.4h3.3
			c0.5,0,0.9-0.1,1.2-0.3c0.2-0.2,0.4-0.5,0.4-1c0-0.5-0.1-0.9-0.2-1.2s-0.4-0.5-0.7-0.6c-0.3-0.1-0.8-0.2-1.3-0.2
			c-0.6,0-1.2,0.1-1.5,0.3c-0.4,0.2-0.6,0.5-0.8,1C323.9,257.8,323.8,258.5,323.8,259.4z"/>
		<path class="st1" d="M335.5,264.5c-0.5,0-1-0.1-1.5-0.2c-0.5-0.1-0.8-0.4-1.2-0.7c-0.3-0.3-0.6-0.8-0.8-1.4
			c-0.2-0.6-0.3-1.4-0.3-2.3c0-1,0.1-1.8,0.3-2.4c0.2-0.6,0.4-1.1,0.7-1.5c0.3-0.3,0.7-0.6,1.2-0.7s1-0.2,1.5-0.2c0.5,0,1,0,1.5,0.1
			c0.5,0,1.1,0.1,1.6,0.2v0.8h-2.7c-0.6,0-1.1,0.1-1.5,0.3c-0.4,0.2-0.7,0.6-0.9,1.1c-0.2,0.5-0.3,1.3-0.3,2.3c0,1,0.1,1.7,0.3,2.3
			c0.2,0.5,0.5,0.9,0.9,1.1c0.4,0.2,0.9,0.3,1.5,0.3h2.8v0.8c-0.3,0-0.6,0.1-0.9,0.1c-0.4,0-0.7,0.1-1.1,0.1
			C336.3,264.5,335.9,264.5,335.5,264.5z"/>
		<path class="st1" d="M343.8,264.4c-0.6,0-1.1-0.1-1.5-0.3c-0.4-0.2-0.7-0.5-0.9-1c-0.2-0.4-0.3-1-0.3-1.8l0.1-5.1h-1.5v-0.9
			l1.5-0.2l0.2-2.6h1.1v2.6h2.7v1.1h-2.7v5.1c0,0.4,0,0.7,0.1,1c0.1,0.2,0.2,0.4,0.3,0.6c0.1,0.1,0.3,0.2,0.5,0.3
			c0.2,0.1,0.3,0.1,0.5,0.1l1.1,0.1v1H343.8z"/>
		<path class="st1" d="M350.7,264.5c-0.7,0-1.3-0.1-1.8-0.2c-0.5-0.1-0.9-0.4-1.3-0.7c-0.3-0.3-0.6-0.8-0.7-1.5
			c-0.2-0.6-0.2-1.4-0.2-2.4c0-1,0.1-1.8,0.2-2.4c0.2-0.6,0.4-1.1,0.7-1.4c0.3-0.3,0.8-0.6,1.3-0.7c0.5-0.1,1.1-0.2,1.8-0.2
			c0.7,0,1.3,0.1,1.8,0.2c0.5,0.1,0.9,0.4,1.3,0.7c0.3,0.3,0.6,0.8,0.8,1.4c0.2,0.6,0.3,1.4,0.3,2.4c0,1-0.1,1.8-0.3,2.4
			c-0.2,0.6-0.4,1.1-0.7,1.4c-0.3,0.3-0.7,0.6-1.3,0.7C352,264.4,351.4,264.5,350.7,264.5z M350.7,263.3c0.4,0,0.8,0,1.1-0.1
			c0.3-0.1,0.6-0.2,0.8-0.5c0.2-0.2,0.4-0.6,0.5-1.1c0.1-0.5,0.2-1.1,0.2-1.9c0-0.8-0.1-1.5-0.2-1.9c-0.1-0.5-0.3-0.8-0.5-1.1
			c-0.2-0.2-0.5-0.4-0.8-0.5c-0.3-0.1-0.7-0.1-1.1-0.1c-0.4,0-0.8,0-1.1,0.1c-0.3,0.1-0.6,0.2-0.8,0.5c-0.2,0.2-0.4,0.6-0.5,1.1
			c-0.1,0.5-0.2,1.1-0.2,1.9c0,0.8,0.1,1.4,0.2,1.9c0.1,0.5,0.3,0.9,0.5,1.1c0.2,0.2,0.5,0.4,0.8,0.5
			C349.9,263.3,350.3,263.3,350.7,263.3z"/>
		<path class="st1" d="M357.1,264.4v-9.3h1l0.3,1.6c0.4-0.5,0.9-0.9,1.4-1.2c0.5-0.3,1.1-0.5,1.8-0.5c0.2,0,0.3,0,0.5,0
			c0.1,0,0.3,0,0.4,0.1v1.4c-0.2,0-0.3,0-0.5-0.1c-0.2,0-0.3,0-0.5,0c-0.4,0-0.8,0.1-1.1,0.2c-0.3,0.1-0.7,0.3-1,0.5
			c-0.3,0.2-0.6,0.5-0.9,0.8v6.6H357.1z"/>
		<path class="st1" d="M366,264.5c-0.7,0-1.2-0.2-1.7-0.6c-0.4-0.4-0.7-1-0.7-1.7v-0.7c0-0.7,0.2-1.3,0.7-1.8
			c0.5-0.5,1.2-0.7,2.2-0.7h3.1v-1.1c0-0.4-0.1-0.7-0.2-1c-0.1-0.3-0.4-0.5-0.7-0.6c-0.3-0.2-0.8-0.2-1.5-0.2h-2.9v-0.8
			c0.4-0.1,0.9-0.1,1.4-0.2c0.5-0.1,1.2-0.1,1.9-0.1c0.8,0,1.4,0.1,1.9,0.3c0.5,0.2,0.9,0.5,1.1,0.9c0.2,0.4,0.4,1,0.4,1.7v6.5h-1.1
			l-0.3-1.1c0,0-0.2,0.1-0.4,0.2c-0.2,0.1-0.5,0.2-0.9,0.4c-0.4,0.1-0.8,0.3-1.2,0.4C366.9,264.4,366.4,264.5,366,264.5z
			 M366.6,263.4c0.2,0,0.4,0,0.7-0.1c0.3-0.1,0.5-0.1,0.8-0.2c0.3-0.1,0.5-0.2,0.8-0.2c0.2-0.1,0.4-0.1,0.6-0.2
			c0.2-0.1,0.2-0.1,0.2-0.1v-2.9l-2.8,0.1c-0.7,0-1.1,0.2-1.4,0.5c-0.3,0.3-0.4,0.7-0.4,1.2v0.4c0,0.4,0.1,0.7,0.2,0.9
			c0.2,0.2,0.4,0.4,0.6,0.5C366.1,263.4,366.4,263.4,366.6,263.4z"/>
		<path class="st1" d="M376.1,264.4c-0.5,0-1-0.1-1.3-0.3c-0.4-0.2-0.6-0.5-0.8-0.9c-0.2-0.4-0.3-1-0.3-1.8v-10.3h1.4v10.1
			c0,0.6,0.1,1,0.2,1.3c0.1,0.3,0.3,0.5,0.5,0.6c0.2,0.1,0.4,0.2,0.7,0.2l0.9,0.1v1H376.1z"/>
		<path class="st1" d="M384.6,264.5c-0.3,0-0.7,0-1-0.1c-0.4-0.1-0.7-0.2-0.9-0.3V263c0.2,0,0.5,0.1,0.8,0.1
			c0.3,0.1,0.6,0.1,0.9,0.1c0.4,0,0.7-0.1,1-0.2c0.3-0.1,0.5-0.3,0.6-0.6c0.1-0.3,0.2-0.6,0.2-1.1v-9.8h1.4v10
			c0,0.7-0.1,1.3-0.3,1.7c-0.2,0.4-0.5,0.7-1,0.9C385.8,264.4,385.3,264.5,384.6,264.5z"/>
		<path class="st1" d="M392.9,264.5c-0.9,0-1.6-0.2-2.1-0.7c-0.5-0.5-0.7-1.2-0.7-2.2v-6.5h1.4v6.2c0,0.8,0.2,1.3,0.5,1.6
			c0.4,0.3,0.8,0.4,1.5,0.4c0.5,0,1-0.1,1.5-0.2c0.5-0.2,0.9-0.4,1.4-0.7v-7.3h1.4v9.3h-1.1l-0.3-1c-0.5,0.3-1,0.6-1.6,0.8
			C394.2,264.4,393.6,264.5,392.9,264.5z"/>
		<path class="st1" d="M403.4,264.5c-0.8,0-1.4-0.2-1.9-0.5c-0.5-0.3-0.9-0.8-1.1-1.5c-0.2-0.7-0.4-1.6-0.4-2.6
			c0-1.1,0.1-2.1,0.3-2.8c0.2-0.7,0.6-1.2,1.1-1.6c0.5-0.3,1.2-0.5,2.1-0.5c0.5,0,1,0.1,1.5,0.2c0.5,0.1,0.9,0.2,1.3,0.4v-4.4h1.4
			v13.3h-1.1l-0.3-0.9c-0.2,0.1-0.4,0.3-0.8,0.5c-0.3,0.2-0.7,0.3-1.1,0.4C404.1,264.4,403.8,264.5,403.4,264.5z M403.8,263.3
			c0.5,0,1-0.1,1.5-0.3c0.4-0.2,0.8-0.3,1.2-0.5v-6.1c-0.4-0.1-0.8-0.2-1.2-0.3c-0.4-0.1-0.8-0.1-1.3-0.1c-0.6,0-1.1,0.1-1.4,0.3
			c-0.4,0.2-0.6,0.6-0.8,1.1c-0.2,0.5-0.3,1.3-0.3,2.2c0,0.9,0.1,1.6,0.2,2.1c0.2,0.5,0.4,0.9,0.8,1.2
			C402.8,263.2,403.2,263.3,403.8,263.3z"/>
		<path class="st1" d="M410.6,253.4c-0.2,0-0.3-0.1-0.3-0.3v-1.4c0-0.2,0.1-0.3,0.3-0.3h1c0.1,0,0.2,0,0.2,0.1
			c0,0.1,0.1,0.1,0.1,0.2v1.4c0,0.2-0.1,0.3-0.3,0.3H410.6z M410.4,264.4v-9.3h1.4v9.3H410.4z"/>
		<path class="st1" d="M417.8,264.5c-0.5,0-1-0.1-1.5-0.2c-0.5-0.1-0.8-0.4-1.2-0.7c-0.3-0.3-0.6-0.8-0.8-1.4
			c-0.2-0.6-0.3-1.4-0.3-2.3c0-1,0.1-1.8,0.3-2.4c0.2-0.6,0.4-1.1,0.7-1.5c0.3-0.3,0.7-0.6,1.2-0.7c0.5-0.1,1-0.2,1.5-0.2
			c0.5,0,1,0,1.5,0.1c0.5,0,1.1,0.1,1.6,0.2v0.8h-2.7c-0.6,0-1.1,0.1-1.5,0.3c-0.4,0.2-0.7,0.6-0.9,1.1s-0.3,1.3-0.3,2.3
			c0,1,0.1,1.7,0.3,2.3c0.2,0.5,0.5,0.9,0.9,1.1c0.4,0.2,0.9,0.3,1.5,0.3h2.8v0.8c-0.3,0-0.6,0.1-0.9,0.1c-0.4,0-0.7,0.1-1.1,0.1
			C418.6,264.5,418.2,264.5,417.8,264.5z"/>
		<path class="st1" d="M423.1,253.4c-0.2,0-0.3-0.1-0.3-0.3v-1.4c0-0.2,0.1-0.3,0.3-0.3h1c0.1,0,0.2,0,0.2,0.1
			c0,0.1,0.1,0.1,0.1,0.2v1.4c0,0.2-0.1,0.3-0.3,0.3H423.1z M422.9,264.4v-9.3h1.4v9.3H422.9z"/>
		<path class="st1" d="M428.7,264.5c-0.7,0-1.2-0.2-1.7-0.6c-0.4-0.4-0.7-1-0.7-1.7v-0.7c0-0.7,0.2-1.3,0.7-1.8
			c0.5-0.5,1.2-0.7,2.2-0.7h3.1v-1.1c0-0.4-0.1-0.7-0.2-1c-0.1-0.3-0.4-0.5-0.7-0.6c-0.3-0.2-0.8-0.2-1.5-0.2h-2.9v-0.8
			c0.4-0.1,0.9-0.1,1.4-0.2c0.5-0.1,1.2-0.1,1.9-0.1c0.8,0,1.4,0.1,1.9,0.3c0.5,0.2,0.9,0.5,1.1,0.9c0.2,0.4,0.4,1,0.4,1.7v6.5h-1.1
			l-0.3-1.1c0,0-0.2,0.1-0.4,0.2c-0.2,0.1-0.5,0.2-0.9,0.4c-0.4,0.1-0.8,0.3-1.2,0.4C429.5,264.4,429.1,264.5,428.7,264.5z
			 M429.3,263.4c0.2,0,0.4,0,0.7-0.1c0.3-0.1,0.5-0.1,0.8-0.2c0.3-0.1,0.5-0.2,0.8-0.2c0.2-0.1,0.4-0.1,0.6-0.2
			c0.2-0.1,0.2-0.1,0.2-0.1v-2.9l-2.8,0.1c-0.7,0-1.1,0.2-1.4,0.5c-0.3,0.3-0.4,0.7-0.4,1.2v0.4c0,0.4,0.1,0.7,0.2,0.9
			c0.2,0.2,0.4,0.4,0.6,0.5C428.8,263.4,429.1,263.4,429.3,263.4z"/>
		<path class="st1" d="M438.8,264.4c-0.5,0-1-0.1-1.3-0.3c-0.4-0.2-0.6-0.5-0.8-0.9c-0.2-0.4-0.3-1-0.3-1.8v-10.3h1.4v10.1
			c0,0.6,0.1,1,0.2,1.3c0.1,0.3,0.3,0.5,0.5,0.6c0.2,0.1,0.4,0.2,0.7,0.2l0.9,0.1v1H438.8z"/>
		<path class="st1" d="M448.9,264.4c-0.3,0-0.6,0-0.9-0.1c-0.3-0.1-0.6-0.2-0.9-0.3c-0.3-0.2-0.5-0.4-0.7-0.7
			c-0.2-0.3-0.3-0.8-0.3-1.3v-7.8c0-0.5,0.1-0.9,0.2-1.2c0.1-0.3,0.3-0.6,0.6-0.8c0.2-0.2,0.5-0.3,0.8-0.4c0.3-0.1,0.6-0.1,0.9-0.1
			c0.7,0,1.4,0,2,0c0.6,0,1.2,0,1.7,0.1c0.6,0,1.1,0,1.6,0.1v1.1h-5c-0.5,0-0.8,0.1-1.1,0.4c-0.3,0.2-0.4,0.6-0.4,1.2v3l5.7,0.1v1.1
			l-5.7,0.1v3c0,0.4,0.1,0.8,0.2,1c0.1,0.2,0.3,0.4,0.6,0.4c0.2,0.1,0.5,0.1,0.7,0.1h4.9v1.1c-0.5,0-1.1,0.1-1.7,0.1
			c-0.6,0-1.2,0-1.8,0.1C450.1,264.4,449.5,264.4,448.9,264.4z"/>
		<path class="st1" d="M462.1,264.4l-6.6-9.3h1.4l6.7,9.3H462.1z M455.4,264.4l3.5-5l0.5,1.2l-2.6,3.8H455.4z M460,260.1l-0.6-1.1
			l2.7-3.9l1.4,0L460,260.1z"/>
		<path class="st1" d="M468.3,264.4c-0.6,0-1.1-0.1-1.5-0.3c-0.4-0.2-0.7-0.5-0.9-1c-0.2-0.4-0.3-1-0.3-1.8l0.1-5.1h-1.5v-0.9
			l1.5-0.2l0.2-2.6h1.1v2.6h2.7v1.1H467v5.1c0,0.4,0,0.7,0.1,1c0.1,0.2,0.2,0.4,0.3,0.6c0.1,0.1,0.3,0.2,0.5,0.3
			c0.2,0.1,0.3,0.1,0.5,0.1l1.1,0.1v1H468.3z"/>
		<path class="st1" d="M471.6,264.4v-9.3h1l0.3,1.6c0.4-0.5,0.9-0.9,1.4-1.2c0.5-0.3,1.1-0.5,1.8-0.5c0.2,0,0.3,0,0.5,0
			c0.1,0,0.3,0,0.4,0.1v1.4c-0.2,0-0.3,0-0.5-0.1c-0.2,0-0.3,0-0.5,0c-0.4,0-0.8,0.1-1.1,0.2c-0.3,0.1-0.7,0.3-1,0.5
			c-0.3,0.2-0.6,0.5-0.9,0.8v6.6H471.6z"/>
		<path class="st1" d="M480.5,264.5c-0.7,0-1.2-0.2-1.7-0.6c-0.4-0.4-0.7-1-0.7-1.7v-0.7c0-0.7,0.2-1.3,0.7-1.8
			c0.5-0.5,1.2-0.7,2.2-0.7h3.1v-1.1c0-0.4-0.1-0.7-0.2-1c-0.1-0.3-0.4-0.5-0.7-0.6c-0.3-0.2-0.8-0.2-1.5-0.2H479v-0.8
			c0.4-0.1,0.9-0.1,1.4-0.2c0.5-0.1,1.2-0.1,1.9-0.1c0.8,0,1.4,0.1,1.9,0.3c0.5,0.2,0.9,0.5,1.1,0.9c0.2,0.4,0.4,1,0.4,1.7v6.5h-1.1
			l-0.3-1.1c0,0-0.2,0.1-0.4,0.2c-0.2,0.1-0.5,0.2-0.9,0.4c-0.4,0.1-0.8,0.3-1.2,0.4C481.3,264.4,480.9,264.5,480.5,264.5z
			 M481.1,263.4c0.2,0,0.4,0,0.7-0.1c0.3-0.1,0.5-0.1,0.8-0.2c0.3-0.1,0.5-0.2,0.8-0.2c0.2-0.1,0.4-0.1,0.6-0.2
			c0.2-0.1,0.2-0.1,0.2-0.1v-2.9l-2.8,0.1c-0.7,0-1.1,0.2-1.4,0.5c-0.3,0.3-0.4,0.7-0.4,1.2v0.4c0,0.4,0.1,0.7,0.2,0.9
			c0.2,0.2,0.4,0.4,0.6,0.5C480.6,263.4,480.9,263.4,481.1,263.4z"/>
		<path class="st1" d="M491.9,264.5c-0.7,0-1.3-0.1-1.8-0.2c-0.5-0.1-0.9-0.4-1.3-0.7c-0.3-0.3-0.6-0.8-0.7-1.5
			c-0.2-0.6-0.2-1.4-0.2-2.4c0-1,0.1-1.8,0.2-2.4c0.2-0.6,0.4-1.1,0.7-1.4c0.3-0.3,0.8-0.6,1.3-0.7c0.5-0.1,1.1-0.2,1.8-0.2
			c0.7,0,1.3,0.1,1.8,0.2c0.5,0.1,0.9,0.4,1.3,0.7c0.3,0.3,0.6,0.8,0.8,1.4c0.2,0.6,0.3,1.4,0.3,2.4c0,1-0.1,1.8-0.3,2.4
			c-0.2,0.6-0.4,1.1-0.7,1.4c-0.3,0.3-0.7,0.6-1.3,0.7C493.1,264.4,492.5,264.5,491.9,264.5z M491.9,263.3c0.4,0,0.8,0,1.1-0.1
			c0.3-0.1,0.6-0.2,0.8-0.5c0.2-0.2,0.4-0.6,0.5-1.1c0.1-0.5,0.2-1.1,0.2-1.9c0-0.8-0.1-1.5-0.2-1.9c-0.1-0.5-0.3-0.8-0.5-1.1
			c-0.2-0.2-0.5-0.4-0.8-0.5c-0.3-0.1-0.7-0.1-1.1-0.1c-0.4,0-0.8,0-1.1,0.1c-0.3,0.1-0.6,0.2-0.8,0.5c-0.2,0.2-0.4,0.6-0.5,1.1
			c-0.1,0.5-0.2,1.1-0.2,1.9c0,0.8,0.1,1.4,0.2,1.9c0.1,0.5,0.3,0.9,0.5,1.1c0.2,0.2,0.5,0.4,0.8,0.5
			C491.1,263.3,491.4,263.3,491.9,263.3z"/>
		<path class="st1" d="M498.2,264.4v-9.3h1l0.3,1.6c0.4-0.5,0.9-0.9,1.4-1.2c0.5-0.3,1.1-0.5,1.8-0.5c0.2,0,0.3,0,0.5,0
			c0.1,0,0.3,0,0.4,0.1v1.4c-0.2,0-0.3,0-0.5-0.1c-0.2,0-0.3,0-0.5,0c-0.4,0-0.8,0.1-1.1,0.2c-0.3,0.1-0.7,0.3-1,0.5
			c-0.3,0.2-0.6,0.5-0.9,0.8v6.6H498.2z"/>
		<path class="st1" d="M508.4,264.5c-0.8,0-1.4-0.2-1.9-0.5c-0.5-0.3-0.9-0.8-1.1-1.5c-0.2-0.7-0.4-1.6-0.4-2.6
			c0-1.1,0.1-2.1,0.3-2.8c0.2-0.7,0.6-1.2,1.1-1.6c0.5-0.3,1.2-0.5,2.1-0.5c0.5,0,1,0.1,1.5,0.2c0.5,0.1,0.9,0.2,1.3,0.4v-4.4h1.4
			v13.3h-1.1l-0.3-0.9c-0.2,0.1-0.4,0.3-0.8,0.5c-0.3,0.2-0.7,0.3-1.1,0.4C509.1,264.4,508.7,264.5,508.4,264.5z M508.8,263.3
			c0.5,0,1-0.1,1.5-0.3c0.4-0.2,0.8-0.3,1.2-0.5v-6.1c-0.4-0.1-0.8-0.2-1.2-0.3c-0.4-0.1-0.8-0.1-1.3-0.1c-0.6,0-1.1,0.1-1.4,0.3
			c-0.4,0.2-0.6,0.6-0.8,1.1c-0.2,0.5-0.3,1.3-0.3,2.2c0,0.9,0.1,1.6,0.2,2.1c0.2,0.5,0.4,0.9,0.8,1.2
			C507.8,263.2,508.2,263.3,508.8,263.3z"/>
		<path class="st1" d="M515.6,253.4c-0.2,0-0.3-0.1-0.3-0.3v-1.4c0-0.2,0.1-0.3,0.3-0.3h1c0.1,0,0.2,0,0.2,0.1
			c0,0.1,0.1,0.1,0.1,0.2v1.4c0,0.2-0.1,0.3-0.3,0.3H515.6z M515.4,264.4v-9.3h1.4v9.3H515.4z"/>
		<path class="st1" d="M519.4,264.4v-9.3h1.1l0.3,1c0.4-0.3,1-0.6,1.5-0.8c0.6-0.2,1.2-0.4,1.8-0.4c0.7,0,1.2,0.1,1.7,0.4
			c0.4,0.3,0.7,0.7,0.9,1.1c0.2,0.5,0.3,1,0.3,1.5v6.3h-1.4v-6.2c0-0.4-0.1-0.7-0.2-1.1c-0.2-0.3-0.4-0.5-0.7-0.7
			c-0.3-0.2-0.6-0.3-1.1-0.3c-0.4,0-0.7,0-1.1,0.1c-0.3,0.1-0.6,0.2-0.9,0.3c-0.3,0.1-0.6,0.3-0.9,0.5v7.3H519.4z"/>
		<path class="st1" d="M531.4,264.5c-0.7,0-1.2-0.2-1.7-0.6c-0.4-0.4-0.7-1-0.7-1.7v-0.7c0-0.7,0.2-1.3,0.7-1.8
			c0.5-0.5,1.2-0.7,2.2-0.7h3.1v-1.1c0-0.4-0.1-0.7-0.2-1c-0.1-0.3-0.4-0.5-0.7-0.6c-0.3-0.2-0.8-0.2-1.5-0.2h-2.9v-0.8
			c0.4-0.1,0.9-0.1,1.4-0.2c0.5-0.1,1.2-0.1,1.9-0.1c0.8,0,1.4,0.1,1.9,0.3c0.5,0.2,0.9,0.5,1.1,0.9c0.2,0.4,0.4,1,0.4,1.7v6.5h-1.1
			l-0.3-1.1c0,0-0.2,0.1-0.4,0.2c-0.2,0.1-0.5,0.2-0.9,0.4c-0.4,0.1-0.8,0.3-1.2,0.4C532.2,264.4,531.8,264.5,531.4,264.5z
			 M532,263.4c0.2,0,0.4,0,0.7-0.1c0.3-0.1,0.5-0.1,0.8-0.2c0.3-0.1,0.5-0.2,0.8-0.2c0.2-0.1,0.4-0.1,0.6-0.2
			c0.2-0.1,0.2-0.1,0.2-0.1v-2.9l-2.8,0.1c-0.7,0-1.1,0.2-1.4,0.5c-0.3,0.3-0.4,0.7-0.4,1.2v0.4c0,0.4,0.1,0.7,0.2,0.9
			c0.2,0.2,0.4,0.4,0.6,0.5C531.5,263.4,531.7,263.4,532,263.4z"/>
		<path class="st1" d="M539.1,264.4v-9.3h1l0.3,1.6c0.4-0.5,0.9-0.9,1.4-1.2c0.5-0.3,1.1-0.5,1.8-0.5c0.2,0,0.3,0,0.5,0
			c0.1,0,0.3,0,0.4,0.1v1.4c-0.2,0-0.3,0-0.5-0.1c-0.2,0-0.3,0-0.5,0c-0.4,0-0.8,0.1-1.1,0.2s-0.7,0.3-1,0.5
			c-0.3,0.2-0.6,0.5-0.9,0.8v6.6H539.1z"/>
		<path class="st1" d="M546.4,253.4c-0.2,0-0.3-0.1-0.3-0.3v-1.4c0-0.2,0.1-0.3,0.3-0.3h1c0.1,0,0.2,0,0.2,0.1
			c0,0.1,0.1,0.1,0.1,0.2v1.4c0,0.2-0.1,0.3-0.3,0.3H546.4z M546.2,264.4v-9.3h1.4v9.3H546.2z"/>
		<path class="st1" d="M553.9,264.5c-0.7,0-1.3-0.1-1.8-0.2c-0.5-0.1-0.9-0.4-1.3-0.7c-0.3-0.3-0.6-0.8-0.7-1.5
			c-0.2-0.6-0.2-1.4-0.2-2.4c0-1,0.1-1.8,0.2-2.4c0.2-0.6,0.4-1.1,0.7-1.4c0.3-0.3,0.8-0.6,1.3-0.7c0.5-0.1,1.1-0.2,1.8-0.2
			c0.7,0,1.3,0.1,1.8,0.2c0.5,0.1,0.9,0.4,1.3,0.7c0.3,0.3,0.6,0.8,0.8,1.4c0.2,0.6,0.3,1.4,0.3,2.4c0,1-0.1,1.8-0.3,2.4
			c-0.2,0.6-0.4,1.1-0.7,1.4c-0.3,0.3-0.7,0.6-1.3,0.7C555.2,264.4,554.6,264.5,553.9,264.5z M553.9,263.3c0.4,0,0.8,0,1.1-0.1
			c0.3-0.1,0.6-0.2,0.8-0.5c0.2-0.2,0.4-0.6,0.5-1.1c0.1-0.5,0.2-1.1,0.2-1.9c0-0.8-0.1-1.5-0.2-1.9c-0.1-0.5-0.3-0.8-0.5-1.1
			c-0.2-0.2-0.5-0.4-0.8-0.5c-0.3-0.1-0.7-0.1-1.1-0.1c-0.4,0-0.8,0-1.1,0.1c-0.3,0.1-0.6,0.2-0.8,0.5c-0.2,0.2-0.4,0.6-0.5,1.1
			c-0.1,0.5-0.2,1.1-0.2,1.9c0,0.8,0.1,1.4,0.2,1.9c0.1,0.5,0.3,0.9,0.5,1.1c0.2,0.2,0.5,0.4,0.8,0.5
			C553.1,263.3,553.5,263.3,553.9,263.3z"/>
		<path class="st1" d="M291.3,288.2V287l4.7-4.5c0.5-0.5,0.9-0.9,1.2-1.3c0.3-0.4,0.5-0.8,0.6-1.2c0.1-0.4,0.2-0.8,0.2-1.3
			c0-0.4-0.1-0.8-0.2-1.1c-0.2-0.3-0.4-0.6-0.8-0.8c-0.4-0.2-1-0.3-1.7-0.3h-3.5v-1.1c0.5-0.1,1.1-0.1,1.8-0.2
			c0.6-0.1,1.3-0.1,2-0.1c1,0,1.7,0.1,2.3,0.4c0.6,0.3,1,0.7,1.2,1.2c0.2,0.5,0.3,1.1,0.3,1.7c0,0.6-0.1,1.1-0.2,1.6
			c-0.2,0.5-0.4,1-0.7,1.5c-0.3,0.5-0.8,1-1.3,1.5l-3.9,3.8h6.7v1.3H291.3z"/>
		<path class="st1" d="M305.2,288.2c-0.6,0-1.2-0.1-1.6-0.3c-0.5-0.2-0.9-0.5-1.1-1c-0.3-0.4-0.4-1-0.4-1.7v-6.8
			c0-0.7,0.1-1.3,0.4-1.7c0.3-0.5,0.6-0.8,1.1-1s1-0.4,1.6-0.4h2.5c0.7,0,1.3,0.1,1.8,0.4c0.5,0.3,0.8,0.6,1,1.1
			c0.2,0.5,0.3,1,0.3,1.6v6.8c0,1.1-0.3,1.8-0.8,2.3c-0.6,0.5-1.3,0.7-2.2,0.7H305.2z M305.4,287h1.9c0.7,0,1.2-0.2,1.5-0.5
			c0.3-0.4,0.5-0.8,0.5-1.5v-6.5c0-0.7-0.2-1.2-0.5-1.5c-0.3-0.3-0.8-0.5-1.5-0.5h-2c-0.6,0-1.1,0.2-1.5,0.5
			c-0.4,0.3-0.5,0.8-0.5,1.5v6.5c0,0.7,0.2,1.2,0.5,1.5S304.8,287,305.4,287z"/>
		<path class="st1" d="M313,288.2V287l4.7-4.5c0.5-0.5,0.9-0.9,1.2-1.3c0.3-0.4,0.5-0.8,0.6-1.2c0.1-0.4,0.2-0.8,0.2-1.3
			c0-0.4-0.1-0.8-0.2-1.1c-0.2-0.3-0.4-0.6-0.8-0.8c-0.4-0.2-1-0.3-1.7-0.3h-3.5v-1.1c0.5-0.1,1.1-0.1,1.8-0.2
			c0.6-0.1,1.3-0.1,2-0.1c1,0,1.7,0.1,2.3,0.4c0.6,0.3,1,0.7,1.2,1.2c0.2,0.5,0.3,1.1,0.3,1.7c0,0.6-0.1,1.1-0.2,1.6
			c-0.2,0.5-0.4,1-0.7,1.5c-0.3,0.5-0.8,1-1.3,1.5l-3.9,3.8h6.7v1.3H313z"/>
		<path class="st1" d="M328.2,288.3c-0.8,0-1.6,0-2.3-0.1c-0.8,0-1.5-0.1-2.1-0.1V287h4.4c0.5,0,1-0.1,1.4-0.3
			c0.4-0.2,0.7-0.4,0.9-0.7c0.2-0.3,0.3-0.7,0.3-1.1v-1.4c0-0.6-0.2-1.1-0.5-1.4c-0.3-0.3-0.9-0.5-1.6-0.5h-1.4
			c-0.5,0-0.9,0.1-1.3,0.3c-0.3,0.2-0.5,0.6-0.6,1.1h-1.3l0.4-7.7h7.2v1.3h-6l-0.2,4.7c0.1-0.2,0.4-0.4,0.7-0.6
			c0.4-0.2,0.8-0.3,1.3-0.3h1.5c0.7,0,1.2,0.1,1.7,0.4c0.5,0.2,0.8,0.6,1,1c0.2,0.4,0.4,0.9,0.4,1.5v1.9c0,0.7-0.2,1.3-0.5,1.7
			c-0.3,0.5-0.8,0.8-1.4,1C329.7,288.1,329,288.3,328.2,288.3z"/>
		<path class="st1" d="M342.3,288.3c-0.8,0-1.4-0.2-1.9-0.5c-0.5-0.3-0.9-0.8-1.1-1.5c-0.2-0.7-0.4-1.6-0.4-2.6
			c0-1.1,0.1-2.1,0.3-2.8c0.2-0.7,0.6-1.2,1.1-1.6c0.5-0.3,1.2-0.5,2.1-0.5c0.5,0,1,0.1,1.5,0.2c0.5,0.1,0.9,0.2,1.3,0.4v-4.4h1.4
			v13.3h-1.1l-0.3-0.9c-0.2,0.2-0.4,0.3-0.8,0.5s-0.7,0.3-1.1,0.4C343,288.2,342.7,288.3,342.3,288.3z M342.7,287.1
			c0.5,0,1-0.1,1.5-0.3c0.4-0.2,0.8-0.3,1.2-0.5v-6.1c-0.4-0.1-0.8-0.2-1.2-0.3c-0.4-0.1-0.8-0.1-1.3-0.1c-0.6,0-1.1,0.1-1.4,0.3
			c-0.4,0.2-0.6,0.6-0.8,1.1c-0.2,0.5-0.3,1.3-0.3,2.2c0,0.9,0.1,1.6,0.2,2.1s0.4,0.9,0.8,1.2C341.7,287,342.1,287.1,342.7,287.1z"
			/>
		<path class="st1" d="M352.8,288.3c-1,0-1.7-0.1-2.3-0.4c-0.6-0.3-1-0.8-1.2-1.5c-0.2-0.7-0.4-1.6-0.4-2.8c0-1.2,0.1-2.2,0.4-2.9
			c0.2-0.7,0.7-1.2,1.2-1.5c0.6-0.3,1.3-0.4,2.3-0.4c0.8,0,1.5,0.1,2,0.3c0.5,0.2,0.9,0.5,1.1,0.9c0.2,0.4,0.4,1.1,0.4,1.8
			c0,0.5-0.1,1-0.3,1.3c-0.2,0.3-0.5,0.6-0.9,0.7c-0.4,0.1-0.9,0.2-1.4,0.2h-3.4c0,0.8,0.1,1.4,0.2,1.8c0.1,0.5,0.4,0.8,0.8,1
			s1,0.3,1.8,0.3h3v0.8c-0.5,0.1-1.1,0.1-1.6,0.2C354.1,288.3,353.5,288.3,352.8,288.3z M350.3,283.2h3.3c0.5,0,0.9-0.1,1.2-0.3
			c0.2-0.2,0.4-0.5,0.4-1c0-0.5-0.1-0.9-0.2-1.2c-0.2-0.3-0.4-0.5-0.7-0.6c-0.3-0.1-0.8-0.2-1.3-0.2c-0.6,0-1.2,0.1-1.5,0.3
			c-0.4,0.2-0.6,0.5-0.8,1C350.4,281.6,350.3,282.3,350.3,283.2z"/>
		<path class="st1" d="M361.1,288.2c-0.5,0-1-0.1-1.3-0.3c-0.4-0.2-0.6-0.5-0.8-0.9c-0.2-0.4-0.3-1-0.3-1.8v-10.3h1.4V285
			c0,0.6,0.1,1,0.2,1.3c0.1,0.3,0.3,0.5,0.5,0.6c0.2,0.1,0.4,0.2,0.7,0.2l0.9,0.1v1H361.1z"/>
		<path class="st0" d="M371.2,288.2c-0.3,0-0.6,0-0.9-0.1c-0.3-0.1-0.6-0.2-0.9-0.3c-0.3-0.2-0.5-0.4-0.7-0.7
			c-0.2-0.3-0.3-0.8-0.3-1.3V278c0-0.5,0.1-0.9,0.2-1.2c0.1-0.3,0.3-0.6,0.6-0.8c0.2-0.2,0.5-0.3,0.8-0.4c0.3-0.1,0.6-0.1,0.9-0.1
			c0.7,0,1.4,0,2,0c0.6,0,1.2,0,1.7,0.1c0.6,0,1.1,0,1.6,0.1v1.1h-5c-0.5,0-0.8,0.1-1.1,0.4c-0.3,0.2-0.4,0.6-0.4,1.2v3l5.7,0.1v1.1
			l-5.7,0.1v3c0,0.4,0.1,0.8,0.2,1c0.1,0.2,0.3,0.4,0.6,0.4c0.2,0.1,0.5,0.1,0.7,0.1h4.9v1.1c-0.5,0-1.1,0.1-1.7,0.1
			c-0.6,0-1.2,0-1.8,0.1C372.3,288.2,371.8,288.2,371.2,288.2z"/>
		<path class="st0" d="M381.9,288.3c-0.2,0-0.5,0-0.9,0c-0.3,0-0.7,0-1.1-0.1s-0.7,0-1-0.1c-0.3,0-0.5-0.1-0.7-0.1v-0.8h3.8
			c0.4,0,0.7,0,1-0.1c0.3-0.1,0.5-0.2,0.7-0.4c0.2-0.2,0.2-0.5,0.2-0.9v-0.4c0-0.4-0.1-0.7-0.4-0.9c-0.3-0.2-0.7-0.3-1.3-0.3H381
			c-0.5,0-1-0.1-1.5-0.2c-0.4-0.1-0.7-0.4-1-0.7c-0.2-0.3-0.3-0.8-0.3-1.4v-0.5c0-0.6,0.1-1.1,0.3-1.4c0.2-0.4,0.6-0.6,1.1-0.8
			c0.5-0.2,1.1-0.3,1.9-0.3c0.3,0,0.7,0,1.1,0c0.4,0,0.8,0.1,1.2,0.1c0.4,0,0.7,0.1,1,0.1v0.8h-3.6c-0.6,0-1,0.1-1.4,0.3
			c-0.3,0.2-0.5,0.6-0.5,1.1v0.4c0,0.4,0.1,0.6,0.2,0.8c0.1,0.2,0.4,0.3,0.6,0.4c0.3,0.1,0.6,0.1,0.9,0.1h1.3c0.8,0,1.5,0.2,2,0.6
			c0.5,0.4,0.7,1,0.7,1.7v0.6c0,0.6-0.1,1.1-0.4,1.5s-0.7,0.6-1.2,0.7C383.1,288.2,382.5,288.3,381.9,288.3z"/>
		<path class="st0" d="M390.4,288.2c-0.6,0-1.1-0.1-1.5-0.3c-0.4-0.2-0.7-0.5-0.9-1c-0.2-0.4-0.3-1-0.3-1.8l0.1-5.1h-1.5v-0.9
			l1.5-0.2l0.2-2.6h1.1v2.6h2.7v1.1h-2.7v5.1c0,0.4,0,0.7,0.1,1c0.1,0.2,0.2,0.4,0.3,0.6c0.1,0.1,0.3,0.2,0.5,0.3
			c0.2,0.1,0.3,0.1,0.5,0.1l1.1,0.1v1H390.4z"/>
		<path class="st0" d="M395.5,288.3c-0.7,0-1.2-0.2-1.7-0.6c-0.4-0.4-0.7-1-0.7-1.7v-0.7c0-0.7,0.2-1.3,0.7-1.8
			c0.5-0.5,1.2-0.7,2.2-0.7h3.1v-1.1c0-0.4-0.1-0.7-0.2-1c-0.1-0.3-0.4-0.5-0.7-0.6c-0.3-0.1-0.8-0.2-1.5-0.2H394V279
			c0.4-0.1,0.9-0.1,1.4-0.2c0.5-0.1,1.2-0.1,1.9-0.1c0.8,0,1.4,0.1,1.9,0.3c0.5,0.2,0.9,0.5,1.1,0.9c0.2,0.4,0.4,1,0.4,1.7v6.5h-1.1
			l-0.3-1.1c0,0-0.2,0.1-0.4,0.2c-0.2,0.1-0.5,0.2-0.9,0.4c-0.4,0.1-0.8,0.3-1.2,0.4C396.4,288.2,395.9,288.3,395.5,288.3z
			 M396.1,287.3c0.2,0,0.4,0,0.7-0.1c0.3-0.1,0.5-0.1,0.8-0.2c0.3-0.1,0.5-0.2,0.8-0.2c0.2-0.1,0.4-0.2,0.6-0.2
			c0.2-0.1,0.2-0.1,0.2-0.1v-2.9l-2.8,0.1c-0.7,0-1.1,0.2-1.4,0.5c-0.3,0.3-0.4,0.7-0.4,1.2v0.4c0,0.4,0.1,0.7,0.2,0.9
			s0.4,0.4,0.6,0.5C395.6,287.2,395.9,287.2,396.1,287.3z"/>
		<path class="st0" d="M406.2,288.3c-0.8,0-1.4-0.2-1.9-0.5c-0.5-0.3-0.9-0.8-1.1-1.5c-0.2-0.7-0.4-1.6-0.4-2.6
			c0-1.1,0.1-2.1,0.3-2.8c0.2-0.7,0.6-1.2,1.1-1.6c0.5-0.3,1.2-0.5,2.1-0.5c0.5,0,1,0.1,1.5,0.2c0.5,0.1,0.9,0.2,1.3,0.4v-4.4h1.4
			v13.3h-1.1l-0.3-0.9c-0.2,0.2-0.4,0.3-0.8,0.5s-0.7,0.3-1.1,0.4C406.9,288.2,406.6,288.3,406.2,288.3z M406.6,287.1
			c0.5,0,1-0.1,1.5-0.3c0.4-0.2,0.8-0.3,1.2-0.5v-6.1c-0.4-0.1-0.8-0.2-1.2-0.3c-0.4-0.1-0.8-0.1-1.3-0.1c-0.6,0-1.1,0.1-1.4,0.3
			c-0.4,0.2-0.6,0.6-0.8,1.1c-0.2,0.5-0.3,1.3-0.3,2.2c0,0.9,0.1,1.6,0.2,2.1s0.4,0.9,0.8,1.2C405.6,287,406,287.1,406.6,287.1z"/>
		<path class="st0" d="M416.9,288.3c-0.7,0-1.3-0.1-1.8-0.2c-0.5-0.1-0.9-0.4-1.3-0.7c-0.3-0.3-0.6-0.8-0.7-1.5
			c-0.2-0.6-0.2-1.4-0.2-2.4c0-1,0.1-1.8,0.2-2.4c0.2-0.6,0.4-1.1,0.7-1.4c0.3-0.3,0.8-0.6,1.3-0.7c0.5-0.1,1.1-0.2,1.8-0.2
			c0.7,0,1.3,0.1,1.8,0.2c0.5,0.1,0.9,0.4,1.3,0.7c0.3,0.3,0.6,0.8,0.8,1.4c0.2,0.6,0.3,1.4,0.3,2.4c0,1-0.1,1.8-0.3,2.4
			c-0.2,0.6-0.4,1.1-0.7,1.4c-0.3,0.3-0.7,0.6-1.3,0.7C418.1,288.2,417.5,288.3,416.9,288.3z M416.9,287.1c0.4,0,0.8,0,1.1-0.1
			c0.3-0.1,0.6-0.2,0.8-0.5c0.2-0.2,0.4-0.6,0.5-1.1c0.1-0.5,0.2-1.1,0.2-1.9c0-0.8-0.1-1.5-0.2-1.9c-0.1-0.5-0.3-0.8-0.5-1.1
			c-0.2-0.2-0.5-0.4-0.8-0.5c-0.3-0.1-0.7-0.1-1.1-0.1c-0.4,0-0.8,0-1.1,0.1c-0.3,0.1-0.6,0.2-0.8,0.5c-0.2,0.2-0.4,0.6-0.5,1.1
			c-0.1,0.5-0.2,1.1-0.2,1.9c0,0.8,0.1,1.4,0.2,1.9c0.1,0.5,0.3,0.9,0.5,1.1c0.2,0.2,0.5,0.4,0.8,0.5
			C416,287.1,416.4,287.1,416.9,287.1z"/>
		<path class="st0" d="M430.9,288.3c-0.8,0-1.4-0.2-1.9-0.5c-0.5-0.3-0.9-0.8-1.1-1.5c-0.2-0.7-0.4-1.6-0.4-2.6
			c0-1.1,0.1-2.1,0.3-2.8c0.2-0.7,0.6-1.2,1.1-1.6c0.5-0.3,1.2-0.5,2.1-0.5c0.5,0,1,0.1,1.5,0.2c0.5,0.1,0.9,0.2,1.3,0.4v-4.4h1.4
			v13.3h-1.1l-0.3-0.9c-0.2,0.2-0.4,0.3-0.8,0.5s-0.7,0.3-1.1,0.4C431.6,288.2,431.3,288.3,430.9,288.3z M431.3,287.1
			c0.5,0,1-0.1,1.5-0.3c0.4-0.2,0.8-0.3,1.2-0.5v-6.1c-0.4-0.1-0.8-0.2-1.2-0.3c-0.4-0.1-0.8-0.1-1.3-0.1c-0.6,0-1.1,0.1-1.4,0.3
			c-0.4,0.2-0.6,0.6-0.8,1.1c-0.2,0.5-0.3,1.3-0.3,2.2c0,0.9,0.1,1.6,0.2,2.1s0.4,0.9,0.8,1.2C430.3,287,430.7,287.1,431.3,287.1z"
			/>
		<path class="st0" d="M441.4,288.3c-1,0-1.7-0.1-2.3-0.4c-0.6-0.3-1-0.8-1.2-1.5c-0.2-0.7-0.4-1.6-0.4-2.8c0-1.2,0.1-2.2,0.4-2.9
			c0.2-0.7,0.7-1.2,1.2-1.5c0.6-0.3,1.3-0.4,2.3-0.4c0.8,0,1.5,0.1,2,0.3c0.5,0.2,0.9,0.5,1.1,0.9c0.2,0.4,0.4,1.1,0.4,1.8
			c0,0.5-0.1,1-0.3,1.3c-0.2,0.3-0.5,0.6-0.9,0.7s-0.9,0.2-1.4,0.2h-3.4c0,0.8,0.1,1.4,0.2,1.8c0.1,0.5,0.4,0.8,0.8,1s1,0.3,1.8,0.3
			h3v0.8c-0.5,0.1-1.1,0.1-1.6,0.2C442.7,288.3,442.1,288.3,441.4,288.3z M438.9,283.2h3.3c0.5,0,0.9-0.1,1.2-0.3
			c0.2-0.2,0.4-0.5,0.4-1c0-0.5-0.1-0.9-0.2-1.2s-0.4-0.5-0.7-0.6c-0.3-0.1-0.8-0.2-1.3-0.2c-0.6,0-1.2,0.1-1.5,0.3
			c-0.4,0.2-0.6,0.5-0.8,1C439,281.6,438.9,282.3,438.9,283.2z"/>
		<path class="st0" d="M451.6,288.2l1.5-12.8h1.4l3.4,11l3.3-11h1.4l1.5,12.8h-1.3l-1.3-11.2l0.2,0l-3.2,11.2h-1.3L454,277l0.3,0
			l-1.2,11.2H451.6z"/>
		<path class="st0" d="M469.8,288.3c-1,0-1.7-0.1-2.3-0.4c-0.6-0.3-1-0.8-1.2-1.5c-0.2-0.7-0.4-1.6-0.4-2.8c0-1.2,0.1-2.2,0.4-2.9
			c0.2-0.7,0.7-1.2,1.2-1.5c0.6-0.3,1.3-0.4,2.3-0.4c0.8,0,1.5,0.1,2,0.3c0.5,0.2,0.9,0.5,1.1,0.9c0.2,0.4,0.4,1.1,0.4,1.8
			c0,0.5-0.1,1-0.3,1.3c-0.2,0.3-0.5,0.6-0.9,0.7s-0.9,0.2-1.4,0.2h-3.4c0,0.8,0.1,1.4,0.2,1.8c0.1,0.5,0.4,0.8,0.8,1
			c0.4,0.2,1,0.3,1.8,0.3h3v0.8c-0.5,0.1-1.1,0.1-1.6,0.2C471.1,288.3,470.5,288.3,469.8,288.3z M467.3,283.2h3.3
			c0.5,0,0.9-0.1,1.2-0.3c0.2-0.2,0.4-0.5,0.4-1c0-0.5-0.1-0.9-0.2-1.2s-0.4-0.5-0.7-0.6c-0.3-0.1-0.8-0.2-1.3-0.2
			c-0.6,0-1.2,0.1-1.5,0.3c-0.4,0.2-0.6,0.5-0.8,1C467.4,281.6,467.3,282.3,467.3,283.2z M469.1,277.2l1.8-2.4h1.2l-2.2,2.4H469.1z"
			/>
		<path class="st0" d="M481.4,288.2l-6.6-9.3h1.4l6.7,9.3H481.4z M474.8,288.2l3.5-5l0.5,1.2l-2.6,3.8H474.8z M479.3,283.9l-0.6-1.1
			l2.7-3.9l1.4,0L479.3,283.9z"/>
		<path class="st0" d="M484.7,277.2c-0.2,0-0.3-0.1-0.3-0.3v-1.4c0-0.2,0.1-0.3,0.3-0.3h1c0.1,0,0.2,0,0.2,0.1
			c0,0.1,0.1,0.1,0.1,0.2v1.4c0,0.2-0.1,0.3-0.3,0.3H484.7z M484.5,288.2v-9.3h1.4v9.3H484.5z"/>
		<path class="st0" d="M491.9,288.3c-0.5,0-1-0.1-1.5-0.2c-0.5-0.1-0.8-0.4-1.2-0.7c-0.3-0.3-0.6-0.8-0.8-1.4s-0.3-1.4-0.3-2.3
			c0-1,0.1-1.8,0.3-2.4c0.2-0.6,0.4-1.1,0.7-1.5c0.3-0.3,0.7-0.6,1.2-0.7c0.5-0.1,1-0.2,1.5-0.2c0.5,0,1,0,1.5,0.1
			c0.5,0,1.1,0.1,1.6,0.2v0.8h-2.7c-0.6,0-1.1,0.1-1.5,0.3c-0.4,0.2-0.7,0.6-0.9,1.1c-0.2,0.5-0.3,1.3-0.3,2.3c0,1,0.1,1.7,0.3,2.3
			c0.2,0.5,0.5,0.9,0.9,1.1c0.4,0.2,0.9,0.3,1.5,0.3h2.8v0.8c-0.3,0-0.6,0.1-0.9,0.1c-0.4,0-0.7,0.1-1.1,0.1
			C492.7,288.3,492.3,288.3,491.9,288.3z"/>
		<path class="st0" d="M500.7,288.3c-0.7,0-1.3-0.1-1.8-0.2c-0.5-0.1-0.9-0.4-1.3-0.7c-0.3-0.3-0.6-0.8-0.7-1.5
			c-0.2-0.6-0.2-1.4-0.2-2.4c0-1,0.1-1.8,0.2-2.4c0.2-0.6,0.4-1.1,0.7-1.4c0.3-0.3,0.8-0.6,1.3-0.7c0.5-0.1,1.1-0.2,1.8-0.2
			c0.7,0,1.3,0.1,1.8,0.2c0.5,0.1,0.9,0.4,1.3,0.7c0.3,0.3,0.6,0.8,0.8,1.4c0.2,0.6,0.3,1.4,0.3,2.4c0,1-0.1,1.8-0.3,2.4
			c-0.2,0.6-0.4,1.1-0.7,1.4c-0.3,0.3-0.7,0.6-1.3,0.7C502,288.2,501.4,288.3,500.7,288.3z M500.7,287.1c0.4,0,0.8,0,1.1-0.1
			c0.3-0.1,0.6-0.2,0.8-0.5c0.2-0.2,0.4-0.6,0.5-1.1c0.1-0.5,0.2-1.1,0.2-1.9c0-0.8-0.1-1.5-0.2-1.9c-0.1-0.5-0.3-0.8-0.5-1.1
			c-0.2-0.2-0.5-0.4-0.8-0.5c-0.3-0.1-0.7-0.1-1.1-0.1c-0.4,0-0.8,0-1.1,0.1c-0.3,0.1-0.6,0.2-0.8,0.5c-0.2,0.2-0.4,0.6-0.5,1.1
			c-0.1,0.5-0.2,1.1-0.2,1.9c0,0.8,0.1,1.4,0.2,1.9c0.1,0.5,0.3,0.9,0.5,1.1c0.2,0.2,0.5,0.4,0.8,0.5
			C499.9,287.1,500.3,287.1,500.7,287.1z"/>
	</g>
</g>
</svg>
